<svg xmlns="http://www.w3.org/2000/svg" viewBox="0 0 64 64">
  <defs>
    <linearGradient id="g" x1="0" y1="0" x2="1" y2="1">
      <stop offset="0" stop-color="#1E6FFF"/>
      <stop offset="1" stop-color="#0A1130"/>
    </linearGradient>
  </defs>
  <rect width="64" height="64" rx="14" fill="url(#g)"/>
  <circle cx="32" cy="32" r="17" fill="#F0F4FF"/>
  <polygon points="32,22 39,27 36.5,35 27.5,35 25,27" fill="#04081A"/>
  <path d="M32 15a17 17 0 0 1 12 5l-5 4-7-2zM15.5 30a17 17 0 0 1 4.5-10l3 6-3.5 6.5zM22 47a17 17 0 0 1-6-9l6-1 4 6.5zM42 47a17 17 0 0 1-10 2l2-6h7zM48.5 30a17 17 0 0 1-1 9l-5.5-3v-7z" fill="#04081A" opacity="0.85"/>
  <circle cx="50" cy="14" r="9" fill="#F5C518"/>
  <text x="50" y="18" font-family="Arial Black, sans-serif" font-size="11" font-weight="900" text-anchor="middle" fill="#04081A">26</text>
</svg>
